<?xml version="1.0" encoding="UTF-8"?>
<svg id="Layer_1" xmlns="http://www.w3.org/2000/svg" version="1.1" viewBox="0 0 1000 350">
  <!-- Generator: Adobe Illustrator 30.1.0, SVG Export Plug-In . SVG Version: 2.1.1 Build 136)  -->
  <defs>
    <style>
      .st0 {
        fill: #ee1d25;
      }

      .st1 {
        fill: #fff;
      }

      .st2 {
        fill: #006738;
      }

      .st3 {
        fill: #1b75bc;
      }
    </style>
  </defs>
  <path class="st3" d="M724.59,145.98v202.61h-71v-5.68c0-74.48-.25-148.97.16-223.45.12-21.08,7.14-40.44,20.16-57.24,16.78-21.67,39.75-32.72,66.02-38.36,17.44-3.74,35.05-4.7,52.67-3.73,25.42,1.4,49.38,8.08,69.32,24.82,17.47,14.68,28.4,33.77,34.62,55.57,4.44,15.56,6.66,31.46,6.05,47.68-.47,12.37-3.56,24.17-7.97,35.65-6.24,16.27-16.11,30.01-29.02,41.65-10.76,9.7-23.38,15.97-37.01,20.47-19.12,6.32-38.88,6.52-58.68,5.91-6.21-.19-12.39-1.37-18.95-2.14v-65.53c5.93,1.43,11.67,3.28,17.56,4.14,16.37,2.41,31.36-1.16,44.12-11.99,14.37-12.19,19.02-28.58,17.8-46.53-1.61-23.78-14.77-39.1-39.1-43.98-12.54-2.51-24.72-2.08-36.67,2.2-14.12,5.07-23.39,15.22-26.86,29.62-2.17,9-2.22,18.51-3.22,28.29v.02h0Z"/>
  <path class="st3" d="M159.59,203.24c0,10.8.12,21.13-.04,31.46-.11,6.94-.53,13.87-1.06,20.79-.09,1.13-1.22,2.62-2.27,3.18-8.73,4.65-18.12,7.04-27.93,8.38-18.85,2.57-36.9-.37-54.5-7.01-18.28-6.91-33.55-18.05-45.07-33.82-11.57-15.85-18.18-33.72-20.21-53.36-2.31-22.35-1.69-44.53,5.31-65.93,6.53-19.97,17.78-37.04,34.52-50.44,18.5-14.8,39.37-23.47,62.69-26.49,7.49-.97,15.08-2.16,22.58-1.88,26.65.97,51.56,8.25,72.01,25.75,23.25,19.89,39.49,44.67,44.88,75.43,1.3,7.42,1.94,15.03,1.99,22.57.21,31.67.09,63.33.09,95v5.77h-70v-5.38c0-30.67.07-61.33-.03-92-.05-16-4.21-30.9-14.66-43.22-6.52-7.7-15.68-12.23-25.7-12.84-10.1-.61-20.23-.76-30.38,2.48-18.52,5.91-30.34,17.9-35.04,36.32-6.53,25.6,3.33,45.56,25.54,59.94,17.34,11.22,34.92,9.45,52.69,1.25,1.32-.61,2.67-1.16,4.58-1.99v6.05h0Z"/>
  <path class="st3" d="M343.55,114.15c-1.04,5.14-2.8,9.9-2.83,14.67-.23,35.65-.07,71.31-.18,106.96-.02,6.23-.73,12.46-1.13,18.94h-70.81v-5.62c0-40.65-.39-81.31.15-121.96.31-23.29,6.41-45.36,20.1-64.54,12.97-18.16,31.1-28.97,53.05-32.42,11.02-1.74,22.43-2.72,33.53-1.97,41,2.75,70.26,25.91,81.21,67.05,3.83,14.42,5.1,29.05,5.03,43.92-.18,36.65-.06,73.31-.06,109.96v5.6h-71v-5.71c0-41.49-.28-82.97.13-124.46.17-17.16-15.28-25.23-29.16-23.39-7.83,1.04-14.65,4.55-18.01,12.97h-.02Z"/>
  <path class="st3" d="M618.59,59.98v26h-15.65c-12.33,0-24.66-.09-36.99.05-3.59.04-7.21.56-10.75,1.18-4.11.72-6.99,3.4-7.34,7.47-.38,4.43,1.08,8.41,4.99,11.41,9.44,7.26,20.95,9.62,31.68,13.75,13.43,5.16,26.11,11.61,36.18,21.95,10.87,11.16,16.62,24.79,16.92,40.62.26,13.65-1.47,26.79-7.89,39.08-9.25,17.69-24.3,27.62-43.38,31.31-8.82,1.71-18.01,2-27.04,2.09-26.65.26-53.31.09-80.35.09v-64h5.16c20.66,0,41.32.05,61.98-.03,4.81-.02,9.67-.89,12.45-5.3,3.43-5.43,1.85-12.58-4.04-15.53-10.89-5.46-21.95-10.77-33.37-14.98-21.38-7.88-36.6-21.5-40.95-44.29-4.28-22.41-2.27-44.05,15.33-61.2,9.52-9.27,21.45-14.4,34.38-16.51,9.06-1.48,18.35-1.93,27.55-2.07,20.14-.29,40.29-.09,61.14-.09v29h-.01,0Z"/>
  <path class="st3" d="M990.42,39.99c-.28,3.08-.8,6.16-.8,9.24-.05,65.11-.04,130.21-.04,195.32v6.16h-75v-3.54c0-62.94,0-125.88.01-188.83,0-.99.15-1.98.95-3.15,2.83,3.17,5.24,6.37,6.98,9.91,1.71,3.48,3.77,5.65,7.89,4.87h0c1.49,3.59,2.93,7.18,4.49,10.73,1.86,4.24,4.21,7.71,10.19,5.67.94,2.54,1.93,4.92,3.19,7.16,1.16,2.07,2.55,4,4.37,5.82.86.88,1.83,1.73,2.91,2.55,0,0,0-.01.01-.01.54-.88,1.08-1.75,1.62-2.62,1.35-2.15,2.69-4.28,4.02-6.39,0,0,0-.01.02-.02,2.81-4.45,5.6-8.84,8.3-13.23.99-1.6,1.96-3.21,2.91-4.82.8-1.34,1.59-2.68,2.35-4.03.86-1.48,1.69-2.98,2.51-4.48.8-1.47,1.54-2.96,2.24-4.48.47-1.01.92-2.03,1.35-3.05,1.53-3.61,2.88-7.31,4.2-11.02.75-2.11,1.49-4.23,2.25-6.33h0c.25-.69.45-1.24.67-1.63.06-.1.11-.18.17-.25.45-.54,1.04-.47,2.23.45Z"/>
  <path class="st0" d="M992.07,33.09c-.66,1.97-1,4.05-1.57,6.49-1.26-.69-1.86-.66-2.31-.04-.07.07-.12.16-.17.25-.22.39-.42.94-.67,1.62h0c-.76,2.11-1.5,4.23-2.25,6.34-1.32,3.71-2.67,7.41-4.2,11.02-.43,1.02-.88,2.04-1.35,3.05-.7,1.52-1.44,3.01-2.24,4.48-.82,1.5-1.65,3-2.51,4.48-.76,1.35-1.55,2.69-2.35,4.03-.95,1.61-1.92,3.22-2.91,4.82-2.69,4.4-5.48,8.79-8.3,13.23-.01.01-.02.02-.02.02-1.33,2.11-2.67,4.24-4.02,6.39-.54.87-1.08,1.74-1.62,2.62-1.08-.82-2.05-1.67-2.92-2.54-1.82-1.84-3.21-3.8-4.33-5.9-1.19-2.21-2.07-4.58-2.83-7.09,5.48-9.7,11.72-18.68,16.4-28.42,5.26-10.96,10.3-22.23,9.82-34.98-.01-.27-.01-.53,0-.79.15-2.59,1.57-4.29,5.06-2.61,4.06,1.96,8.23,3.69,12.38,5.46,3.9,1.67,4.1,4.54,2.92,8.07Z"/>
  <path class="st2" d="M950.97,24.06c-2.99,16.27-10.86,30.4-19.75,44.41-.23.37-.47.75-.71,1.12h-.01c-4.2,1.15-6.26-1.03-7.97-4.51-1.74-3.53-4.15-6.74-6.62-10.15,2.66-5.56,5.81-10.97,8.65-16.56,5.59-11.03,9.32-22.56,7.65-36.96,6.57,3.74,12.57,6.3,17.38,10.02.54.42,1.06.85,1.57,1.3,1.86,1.64.51,7.53-.19,11.33Z"/>
  <path class="st1" d="M961.89,57.94c-4.68,9.74-10.92,18.72-16.4,28.42.76,2.51,1.64,4.88,2.83,7.09-.02.03-.03.05-.04.08-1.26-2.24-2.25-4.62-3.19-7.16-5.98,2.04-8.33-1.43-10.19-5.67-1.56-3.55-3-7.14-4.49-10.72.27-.5.54-1,.81-1.51,8.89-14.01,16.76-28.14,19.75-44.41.7-3.8,2.05-9.69.19-11.33-.51-.45-1.03-.88-1.57-1.3,1.07-.76,2.54-.95,3.87-.24,6.89,3.65,13.13,6.72,18.25,10.98-.01.26-.01.52,0,.79.48,12.75-4.56,24.02-9.82,34.98Z"/>
</svg>