<?xml version="1.0" encoding="UTF-8"?>
<svg id="Layer_1" xmlns="http://www.w3.org/2000/svg" version="1.1" viewBox="0 0 1920 570">
  <!-- Generator: Adobe Illustrator 30.1.0, SVG Export Plug-In . SVG Version: 2.1.1 Build 136)  -->
  <defs>
    <style>
      .st0 {
        fill: #ee1d25;<!--red-->
      }

      .st1 {
        fill: #1b75bc;<!--blue-->
      }

      .st2 {
        fill: #006738;<!--green-->
      }
    </style>
  </defs>
  <path class="st1" d="M1180,262v202.61h-71v-5.68c0-74.48-.25-148.97.16-223.45.12-21.08,7.14-40.44,20.16-57.24,16.78-21.67,39.75-32.72,66.02-38.36,17.44-3.74,35.05-4.7,52.67-3.73,25.42,1.4,49.38,8.08,69.32,24.82,17.47,14.68,28.4,33.77,34.62,55.57,4.44,15.56,6.66,31.46,6.05,47.68-.47,12.37-3.56,24.17-7.97,35.65-6.24,16.27-16.11,30.01-29.02,41.65-10.76,9.7-23.38,15.97-37.01,20.47-19.12,6.32-38.88,6.52-58.68,5.91-6.21-.19-12.39-1.37-18.95-2.14v-65.53c5.93,1.43,11.67,3.28,17.56,4.14,16.37,2.41,31.36-1.16,44.12-11.99,14.37-12.19,19.02-28.58,17.8-46.53-1.61-23.78-14.77-39.1-39.1-43.98-12.54-2.51-24.72-2.08-36.67,2.2-14.12,5.07-23.39,15.22-26.86,29.62-2.17,9-2.22,18.51-3.22,28.29Z"/>
  <path class="st1" d="M615,319.27c0,10.8.12,21.13-.04,31.46-.11,6.94-.53,13.87-1.06,20.79-.09,1.13-1.22,2.62-2.27,3.18-8.73,4.65-18.12,7.04-27.93,8.38-18.85,2.57-36.9-.37-54.5-7.01-18.28-6.91-33.55-18.05-45.07-33.82-11.57-15.85-18.18-33.72-20.21-53.36-2.31-22.35-1.69-44.53,5.31-65.93,6.53-19.97,17.78-37.04,34.52-50.44,18.5-14.8,39.37-23.47,62.69-26.49,7.49-.97,15.08-2.16,22.58-1.88,26.65.97,51.56,8.25,72.01,25.75,23.25,19.89,39.49,44.67,44.88,75.43,1.3,7.42,1.94,15.03,1.99,22.57.21,31.67.09,63.33.09,95v5.77h-70v-5.38c0-30.67.07-61.33-.03-92-.05-16-4.21-30.9-14.66-43.22-6.52-7.7-15.68-12.23-25.7-12.84-10.1-.61-20.23-.76-30.38,2.48-18.52,5.91-30.34,17.9-35.04,36.32-6.53,25.6,3.33,45.56,25.54,59.94,17.34,11.22,34.92,9.45,52.69,1.25,1.32-.61,2.67-1.16,4.58-1.99v6.05Z"/>
  <path class="st1" d="M798.96,230.17c-1.04,5.14-2.8,9.9-2.83,14.67-.23,35.65-.07,71.31-.18,106.96-.02,6.23-.73,12.46-1.13,18.94h-70.81v-5.62c0-40.65-.39-81.31.15-121.96.31-23.29,6.41-45.36,20.1-64.54,12.97-18.16,31.1-28.97,53.05-32.42,11.02-1.74,22.43-2.72,33.53-1.97,41,2.75,70.26,25.91,81.21,67.05,3.83,14.42,5.1,29.05,5.03,43.92-.18,36.65-.06,73.31-.06,109.96v5.6h-71v-5.71c0-41.49-.28-82.97.13-124.46.17-17.16-15.28-25.23-29.16-23.39-7.83,1.04-14.65,4.55-18.01,12.97Z"/>
  <path class="st1" d="M1074,176v26h-15.65c-12.33,0-24.66-.09-36.99.05-3.59.04-7.21.56-10.75,1.18-4.11.72-6.99,3.4-7.34,7.47-.38,4.43,1.08,8.41,4.99,11.41,9.44,7.26,20.95,9.62,31.68,13.75,13.43,5.16,26.11,11.61,36.18,21.95,10.87,11.16,16.62,24.79,16.92,40.62.26,13.65-1.47,26.79-7.89,39.08-9.25,17.69-24.3,27.62-43.38,31.31-8.82,1.71-18.01,2-27.04,2.09-26.65.26-53.31.09-80.35.09v-64h5.16c20.66,0,41.32.05,61.98-.03,4.81-.02,9.67-.89,12.45-5.3,3.43-5.43,1.85-12.58-4.04-15.53-10.89-5.46-21.95-10.77-33.37-14.98-21.38-7.88-36.6-21.5-40.95-44.29-4.28-22.41-2.27-44.05,15.33-61.2,9.52-9.27,21.45-14.4,34.38-16.51,9.06-1.48,18.35-1.93,27.55-2.07,20.14-.29,40.29-.09,61.14-.09v29Z"/>
  <path class="st1" d="M1445.83,156c-.28,3.08-.8,6.17-.8,9.25-.05,65.11-.04,130.21-.04,195.32v6.16h-75v-3.54c0-62.94,0-125.88.01-188.83,0-.99.15-1.98.95-3.15,2.83,3.17,5.24,6.37,6.98,9.91,1.71,3.48,3.77,5.65,7.89,4.87,1.49,3.58,2.93,7.18,4.49,10.73,1.86,4.24,4.21,7.71,10.19,5.67,2.23,6.01,4.7,11.16,10.47,15.53,7.53-12.21,15.2-23.59,21.73-35.59,4.25-7.81,6.99-16.48,10.05-24.89.78-2.14,1.08-2.97,3.08-1.43Z"/>
  <path class="st0" d="M1445.92,155.6c-2.08-1.14-2.38-.31-3.16,1.83-3.06,8.41-5.8,17.07-10.05,24.89-6.52,12-14.19,23.38-21.73,35.59-5.77-4.37-8.25-9.52-10.08-15.53,5.48-9.7,11.72-18.68,16.4-28.42,5.26-10.96,10.3-22.23,9.82-34.98-.11-3.02,1.23-5.24,5.06-3.4,4.06,1.96,8.23,3.69,12.38,5.46,3.9,1.67,4.1,4.54,2.92,8.07-.66,1.97-1,4.05-1.57,6.49Z"/>
  <path class="st2" d="M1385.91,185.62c-4.2,1.15-6.26-1.03-7.97-4.51-1.74-3.53-4.15-6.74-6.62-10.15,2.66-5.56,5.81-10.97,8.65-16.56,5.59-11.03,9.32-22.56,7.65-36.96,7.31,4.16,13.91,6.86,18.95,11.32,1.86,1.64.51,7.53-.19,11.33-3.07,16.7-11.28,31.15-20.46,45.53Z"/>
</svg>