<?xml version="1.0" encoding="UTF-8"?>
<svg id="Layer_1" xmlns="http://www.w3.org/2000/svg" version="1.1" viewBox="0 0 1920 1080">
  <!-- Generator: Adobe Illustrator 30.1.0, SVG Export Plug-In . SVG Version: 2.1.1 Build 136)  -->
  <defs>
    <style>
      .st0 {
        fill: #1b75bc;
      }
    </style>
  </defs>
  <circle class="st0" cx="626.08" cy="463.92" r="140.79"/>
  <path class="st0" d="M855.91,609.15l1049.83-155.39c6.59-.97,8.4,8.72,1.9,10.19l-1008.28,227.86c-9.77,2.21-19.97-1.43-25.88-9.22l-31.41-41.41c-9.32-12.29-1.79-29.71,13.84-32.03Z"/>
  <path class="st0" d="M242.57,205.65c5.97-6.88-1.25-17.45-10.13-15.42C167.22,205.08,0,257.45,0,403.91,0,585.86,326.27,850.03,1403.07,850.03c109.5,0,232.9-3.65,336.07-7.69,13.78-.54,14.26-20.8.52-21.99-614.03-53.31-1568.38-193.39-1576.96-449.58-3.35-100.1,47.53-127.8,79.87-165.12Z"/>
</svg>